<?xml version="1.0" encoding="utf-8"?>
<!-- Generator: Adobe Illustrator 25.2.3, SVG Export Plug-In . SVG Version: 6.00 Build 0)  -->
<svg version="1.1" id="Capa_1" xmlns="http://www.w3.org/2000/svg" xmlns:xlink="http://www.w3.org/1999/xlink" x="0px" y="0px"
	 viewBox="0 0 630 676.3" style="enable-background:new 0 0 630 676.3;" xml:space="preserve">
<style type="text/css">
	.st0{fill:#FD790F;}
	.st1{fill:#FB7C15;}
	.st2{fill:#FB7A12;}
	.st3{fill:#FB7B13;}
	.st4{fill:#FC7A10;}
	.st5{fill:#FEFEFE;}
	.st6{fill:#FB7A10;}
	.st7{fill:#FEFEFD;}
</style>
<g id="Capa_2_1_">
	<g id="Capa_1-2">
		<path class="st0" d="M340,467.3c-31.6,0-63.3,0.2-95,0c-32.1-0.2-60.7-11-85.9-30.6c-21-16.4-35.9-37.4-45.3-62.1
			c-5.6-14.4-8.6-29.8-8.7-45.3c-0.1-62-0.1-124,0-185.9c0.1-39.9,14.4-73.9,42.6-102.1c21.6-21.5,47.7-34.1,77.5-39.4
			c5.9-1,11.9-1.5,17.9-1.5c63.5-0.1,127-0.9,190.5,0.2c60.2,1.1,103.3,30.7,129.3,84.8c8.8,18.3,12.3,38.1,12.2,58.5
			c-0.1,60,0.1,120-0.1,179.9c-0.2,46.1-18.5,84-54.2,112.8c-25.2,20.3-54.6,30.7-87.2,30.7C402.4,467.4,371.2,467.4,340,467.3z
			 M335.1,61.6c4.4-8.1,4.9-15.9,1.4-23.2c-4.4-9.3-12.2-14.7-22.8-14.9c-11-0.3-19.2,4.8-24.2,14.4c-4.8,9.2-3,19.6,4.4,27.5
			c2.2,2.3,2.2,3.1-1.1,4c-17.7,5.1-34.3,13.4-49,24.4c-32.6,24.4-54.4,56.1-63.3,96.3c-4.7,20.9-4.6,41.8-1.3,62.8
			c0.5,3.4,2,4.7,5.8,3.8c6.4-1.5,13-2.4,19.6-3.4c14.4-2.3,28.8-4.6,43.2-6.9c17.7-2.9,35.3-5.9,53-8.8c19.1-3.1,38.3-6.1,57.4-9.1
			c18.7-3,37.3-6.1,55.9-9.1c14.9-2.4,29.8-4.9,44.7-7.3c14.2-2.3,28.5-4.7,42.7-6.7c7.9-1.1,8-0.8,6.3-8.6
			c-0.2-0.8-0.5-1.6-0.6-2.4c-3.6-22.1-12.5-42.1-25-60.5c-12.4-18.2-28.4-33.8-47.1-45.5c-20.8-13.4-44.4-21.9-68.9-25.2
			C356,61.6,345.6,61.1,335.1,61.6L335.1,61.6z M260.5,395.7l20.3-21.8c1.5-1.5,3.4-2.6,5.5-3c12.3-3.4,24.6-6.7,35.1-14.5
			c0.7-0.5,1.5-0.7,2.3-0.7c9.3,1.5,18.6-0.2,27.8-0.2c10-0.2,19.9-1.4,29.6-3.5c13.6-2.8,27.1-5.9,40.7-8.6
			c15.1-3,30.3-5.7,45.4-8.5c3-0.4,5.7-1.9,7.7-4.2c2.4-2.8,2.2-5.2-1-7.4s-6.7-2.7-10.4-2.7c-76.1,0-152.3,0-228.4,0
			c-2.3-0.1-4.6,0.5-6.5,1.8c-12.4,8.8-15.5,18.4-9.3,32.7c1.5,3.4,0.8,5.3-1.2,7.8c-5.3,6.5-10.7,12.9-15.8,19.6
			c-4.2,5.5-8.5,9.9-16.3,6.9c-1.3-0.5-3.1,0.2-4.4-0.3c-3.3-1.3-5.6,0-8.1,1.9c-9,7-18.1,13.8-27.1,20.6c-1.9,1.4-2.2,2.6-0.2,4.3
			c4.1,3.6,7.9,7.5,12.1,11c18.6,15.8,40.6,24.6,64.1,29.8c2.1,0.5,3.5-0.1,5.3-1.5c19.8-15.7,39.7-31.2,59.5-46.7
			c4.5-3.5,8.9-7.1,13.9-11.1C287.4,394.9,274.5,396.8,260.5,395.7L260.5,395.7z M343.4,268.3c-68.2,0-136.3,0-204.4,0
			c-3.1,0-6.7-0.2-7.3,3.5c-0.6,3.9-2.1,8.4,2.9,11.5c6.2,4,12.2,8.4,18,13c2.5,2.1,5.7,3.2,9,3c69.3-0.1,138.7-0.1,207.9-0.1
			c51.8,0,103.6,0,155.5,0c2.1,0,4.2,0.5,6.2-1.1c6.7-5.1,13.6-10,20.4-15.1c3-2.2,4.6-8.4,3.1-11.9s-4.8-2.9-7.8-2.9L343.4,268.3z"
			/>
		<path class="st1" d="M206.8,619.7c0,16.9-0.2,33.8,0.1,50.7c0.1,4.7-1.4,6.1-5.9,5.8c-4.2-0.3-8.3-0.3-12.5,0
			c-4.5,0.4-5.5-1.4-5.5-5.7c0.3-26.6,0.3-53.3,0.4-79.9c0-15.7,0.1-31.3,0-47c0-3,0.8-4.9,3.4-6.5c22.7-14.6,46.8-18.7,72.6-10
			c19.4,6.6,33.2,25.9,33.8,46.3c0.6,21.7-7.5,38.9-27.1,48.4c-19.3,9.4-39.3,9.9-58.4-2C207.4,619.7,207.1,619.7,206.8,619.7z
			 M206.7,572.4L206.7,572.4c0,6.7,0,13.3,0,20c-0.1,2.1,0.7,4.2,2.2,5.8c10.4,10.7,30.5,14.1,43.9,7.7c19.4-9.2,23.1-36.6,9.3-52.3
			s-39.2-13.1-53.4-5.3c-2,1.1-2,2.8-2,4.7C206.7,559.4,206.7,565.9,206.7,572.4z"/>
		<path class="st2" d="M587.7,578.8c-12.5,0-25,0.1-37.5,0c-4,0-4.6,1.1-3.7,5c5,21.9,25.7,29.1,44.5,24.4c7.7-2,14.8-5.9,20.5-11.5
			c1.7-1.6,2.5-1.8,4.3,0c3.3,3.2,6.9,6.2,10.6,9c2.5,1.9,2.2,3.3,0,5.3c-11,9.4-23.5,15.5-37.8,17c-15.9,1.7-31.3-0.4-44.7-9.8
			c-15.9-11.1-21.7-27-21.4-46c0.1-23.3,16.6-43.2,39.4-47.8c23.4-4.9,48.3,0.4,61.7,24.4c4.4,7.9,6,16.4,6.5,25.3
			c0.2,3.8-1.2,4.9-4.9,4.8C612.7,578.7,600.2,578.8,587.7,578.8z M575.9,561.2c8.5,0,17-0.2,25.5,0.1c4.7,0.2,4.4-1.5,2.8-4.9
			c-3.7-7.5-9.8-11.8-17.5-14.5c-14.8-5.2-32.3,1.9-38.7,15.8c-1.5,3.2-0.5,3.5,2.4,3.5C558.9,561.2,567.4,561.2,575.9,561.2
			L575.9,561.2z"/>
		<path class="st2" d="M365.8,578.7c-12.2,0-24.3,0.1-36.5-0.1c-4-0.1-5.6,0.3-4.6,5.1c3,13.9,14.6,24.2,28.7,25.5
			c13.9,1.1,25.8-2.8,35.8-12.5c1.5-1.5,2.5-2.3,4.5-0.5c3.6,3.4,7.5,6.5,11.3,9.6c1.9,1.6,2.2,2.7,0.1,4.5
			c-16.5,14.1-35.4,20.1-57.1,17.1c-15.2-2.1-28.3-8-37.5-20.7c-17.8-24.8-12.7-64.7,18.2-78.5c21.1-9.4,42.2-8.6,61,5.9
			c13,10,18.1,24.4,18.5,40.7c0.1,3.2-1.7,3.8-4.4,3.8C391.1,578.7,378.4,578.7,365.8,578.7L365.8,578.7z M354.5,561.2
			c8.3,0,16.6-0.2,25,0.1c4.8,0.2,4.4-2.1,2.9-5c-3.5-7.1-9.9-12.3-17.6-14.3c-14.6-4.3-31.6,0.5-38.7,15.7
			c-1.5,3.1-0.6,3.6,2.4,3.5C337.1,561.1,345.8,561.2,354.5,561.2z"/>
		<path class="st3" d="M153,566.1c-1.7-9.4-2-18.4-11.9-22c-5.3-1.9-10.8-3.6-16.5-2.7c-8,1.3-16,2.7-23.2,6.8
			c-2.3,1.3-3.4,1.1-4.5-1.5c-1.4-3.2-3.3-6.1-4.9-9.2c-3-5.5-3-5.5,2.6-7.8c16.9-7,34.2-9.5,52-4.5c15.2,4.2,28.1,15.7,27.4,34.6
			c-0.6,17.1-0.2,34.3-0.1,51.5c0,3.2-0.8,5-3.9,6.6c-20.7,10.1-42.2,14.3-64.6,7.2C86,618.8,75,603.7,79.2,582.5
			c2.3-11.6,10.7-18.7,21-22.7c13.8-5.4,28.1-6.4,42.3-0.6C146.1,560.7,149.2,563.2,153,566.1z M151,594c0-10.1-0.3-11.5-5.4-14.7
			c-10.6-6.5-21.8-9.1-34.1-4.4s-15.5,19.8-5.4,28.4c10.4,8.8,22.6,7.6,34.5,4.6C151.2,605.2,151,604.6,151,594L151,594z"/>
		<path class="st4" d="M521.3,525.2c-15.6,13.9-30.4,27.1-45.4,40.1c-2.7,2.4-2.6,3.8-0.2,6.4c15.3,16.4,30.4,33.1,45.5,49.7
			c1.1,1.2,2.6,2.1,2.6,4.4c-8.5,0-17-0.1-25.4,0.1c-2.6,0-3.9-1.6-5.3-3.2c-10.8-12.3-21.5-24.7-32.4-36.8c-1.5-1.7-2.5-5.3-6-3.9
			c-3.8,1.5-5.9,4.2-5.7,8.9c0.5,10.1,0.3,20.3,0.8,30.5c0.2,3.7-1.1,4.7-4.5,4.5c-4.7-0.3-9.3-0.3-14,0c-3.9,0.3-4.7-1-4.7-4.7
			c0.2-24.6,0.1-49.3,0.1-73.9c0-13.3,0.1-26.7-0.1-40c0-3.5,1-4.8,4.4-4.6c4.6,0.2,9.3,0.3,14,0c3.4-0.2,4.1,1.2,4.1,4.4
			c-0.2,18-0.3,36-0.4,53.9c0,0.9-0.4,2,0.8,3c5.7-5.4,11.5-10.8,17.2-16.1c7.4-6.9,14.8-13.7,22.2-20.6c1.1-1,2.1-2,3.8-2
			C502.1,525.3,511.2,525.2,521.3,525.2z"/>
		<path class="st4" d="M65.3,555.7c0,22-0.1,44,0.1,65.9c0,3.5-1,4.2-4.2,4.1c-5.3-0.2-10.7-0.3-16,0c-3.7,0.2-4.3-1.3-4.3-4.6
			c0.1-43.3,0-86.6,0.2-129.9c0-5-1.1-6.5-6.2-6.2c-10.3,0.5-20.6,0-31,0.2c-3,0-4.2-0.8-4-3.9c0.2-4.5,0.1-9,0-13.5
			c0-2.5,0.9-3.5,3.5-3.5c33.3,0.1,66.6,0.1,99.9,0c2.6,0,3.6,0.8,3.5,3.5c-0.2,4.5-0.2,9,0,13.5c0.2,3.1-1,4-4,3.9
			c-11-0.1-22,0.1-33-0.1c-3.7-0.1-4.8,0.9-4.8,4.7C65.4,511.7,65.3,533.8,65.3,555.7L65.3,555.7z"/>
	</g>
</g>
<g>
	<g>
		<path class="st5" d="M469.4,686.1c-53.6,0-107.1,0-160.7,0c-0.9,0-1.1-0.2-1.1-1.1c0-17.4,0-34.8,0-52.2c0-0.8,0.2-1,1-1
			c107.3,0,214.5,0,321.8,0c0.8,0,1,0.2,1,1c0,17.4,0,34.9,0,52.3c0,0.8-0.2,1-1,1C576.8,686.1,523.1,686.1,469.4,686.1z"/>
		<path class="st6" d="M567.8,661.9c0-7.4,0-14.4,0-21.4c0-1.6,0-1.6,1.6-1.6c1.4,0,2.9,0,4.3,0c0.7,0,1,0.2,1,0.9
			c0,10.8,0,21.6,0,32.4c0,0.7-0.2,1-0.9,1c-1.6-0.1-3.1-0.1-4.7,0c-1,0.1-1.5-0.3-2-1.1c-4-6.7-8-13.4-12-20.1
			c-0.3-0.5-0.6-1.1-1.2-1.6c0,0.4,0,0.7,0,1.1c0,6.8,0,13.7,0,20.5c0,0.9-0.2,1.3-1.2,1.2c-1.6-0.1-3.1-0.1-4.7,0
			c-0.8,0-1.1-0.2-1.1-1.1c0-3.7,0-7.4,0-11.1c0-6.9,0-13.8,0-20.7c0-1.1,0.3-1.4,1.3-1.3c1.5,0.1,3,0.1,4.4,0c0.9,0,1.4,0.3,1.8,1
			c4.2,7,8.4,14,12.6,21.1C567.3,661.2,567.5,661.4,567.8,661.9z"/>
		<path class="st6" d="M330.2,656.5c0,0.1,0,0.2,0,0.2c4.1,1.5,5.3,4.7,5.2,8.6c0,1.5,0,2.9,0.3,4.4c0.2,1,0.5,1.8,1.2,2.6
			c0.4,0.5,0.4,0.8-0.3,0.8c-2,0-4.1,0-6.1,0c-0.8,0-1.1-0.8-1.3-1.4c-0.5-1.3-0.5-2.6-0.6-4c0-1.5,0.2-3-0.2-4.4
			c-0.5-2.3-2.1-3.7-4.4-3.8c-1.7-0.1-3.4,0-5-0.1c-0.9,0-1.2,0.2-1.1,1.1c0.1,3.8,0,7.6,0,11.4c0,0.9-0.2,1.3-1.2,1.2
			c-1.6-0.1-3.1-0.1-4.7,0c-0.8,0-1.1-0.2-1.1-1.1c0-4,0-8,0-12c0-6.7,0-13.3,0-20c0-1,0.3-1.2,1.2-1.2c4.5,0.1,9-0.3,13.5,0.2
			c3.4,0.4,6.4,1.7,8.2,4.7c2.8,4.5,1.4,9.7-3.1,12.4C330.6,656.3,330.4,656.4,330.2,656.5z"/>
		<path class="st6" d="M505.1,656.6c0.8,0.4,1.5,0.7,2.1,1.1c2.4,1.6,3.1,3.9,3.2,6.6c0.1,1.7-0.1,3.4,0.2,5
			c0.2,1.1,0.5,2.1,1.2,2.9c0.2,0.2,0.4,0.4,0.3,0.6c-0.1,0.4-0.5,0.2-0.7,0.2c-1.7,0-3.4,0-5,0c-1.6,0-2-0.3-2.4-1.9
			c-0.3-1.4-0.4-2.8-0.4-4.3c0-0.9,0-1.8,0-2.8c-0.1-2.7-1.8-4.5-4.5-4.7c-1.8-0.1-3.6,0-5.4-0.1c-0.9,0-0.7,0.5-0.7,1
			c0,3.8,0,7.7,0,11.5c0,1-0.3,1.2-1.2,1.2c-1.5-0.1-3-0.1-4.6,0c-0.9,0-1.2-0.2-1.2-1.2c0-9,0-17.9,0-26.9c0-1.8,0-3.6,0-5.4
			c0-0.5,0-0.8,0.7-0.8c4.7,0.1,9.4-0.3,14.1,0.2c3.8,0.5,7.1,2,8.6,5.8C511.2,649.1,510.7,653.7,505.1,656.6z"/>
		<path class="st6" d="M452.7,651c0-3.7,0-7.4,0-11c0-0.9,0.3-1.2,1.1-1.1c1.5,0.1,3,0.1,4.6,0c1-0.1,1.3,0.2,1.3,1.2
			c0,6.4,0,12.9,0,19.3c0,1.4-0.1,2.7,0.2,4.1c0.6,2.6,2.5,4.4,5.1,4.7c1.2,0.1,2.5,0.2,3.7-0.2c2.6-0.8,4-2.5,4.4-5.1
			c0.1-0.8,0.1-1.7,0.1-2.5c0-6.6,0-13.3,0-19.9c0-1.5,0-1.5,1.6-1.5c1.5,0,3,0,4.6,0c0.6,0,0.9,0.1,0.9,0.8c0,7.5,0.1,15-0.2,22.5
			c-0.2,5.7-3.5,9.4-9,10.8c-4.8,1.2-9.5,0.9-13.8-2.1c-3.1-2.2-4.5-5.4-4.5-9.1C452.6,658.2,452.7,654.6,452.7,651z"/>
		<path class="st6" d="M513.8,673.1c0.5-1.6,1-3,1.5-4.5c3.2-9.6,6.5-19.1,9.7-28.7c0.3-0.8,0.6-1.1,1.5-1.1c1.6,0.1,3.2,0.1,4.8,0
			c0.9,0,1.2,0.3,1.5,1.1c3.2,9.8,6.5,19.5,9.8,29.3c0.3,1,0.7,2.1,1,3.1c0.2,0.6,0.2,0.9-0.5,0.9c-1.9,0-3.8,0-5.8,0
			c-0.7,0-0.8-0.4-0.9-0.8c-0.6-1.9-1.2-3.8-1.8-5.7c-0.2-0.6-0.4-0.9-1.1-0.9c-3.1,0.1-6.2,0-9.4,0c-0.6,0-0.9,0.2-1.1,0.8
			c-0.6,2-1.2,3.9-1.8,5.8c-0.2,0.5-0.4,0.8-1,0.8C518.2,673.1,516.1,673.1,513.8,673.1z"/>
		<path class="st6" d="M423.8,673.1c-0.9,0-1.8,0-2.8,0c-0.7,0-0.9-0.2-0.6-0.9c1.2-3.4,2.3-6.8,3.4-10.2c2.5-7.3,5-14.6,7.4-22
			c0.3-0.9,0.6-1.2,1.6-1.2c1.4,0.1,2.8,0.1,4.2,0c1.3-0.1,1.8,0.3,2.2,1.6c2.5,7.6,5,15.1,7.6,22.7c1,3,2,6,3,9
			c0.3,0.9,0.1,1.1-0.8,1c-1.7-0.1-3.4-0.1-5,0c-0.9,0-1.3-0.3-1.5-1.1c-0.5-1.8-1.1-3.6-1.7-5.4c-0.2-0.7-0.5-1-1.2-0.9
			c-3.1,0-6.2,0-9.2,0c-0.7,0-1,0.3-1.1,0.9c-0.5,1.8-1.2,3.6-1.7,5.5c-0.2,0.8-0.5,1.2-1.4,1.1C425.5,673,424.6,673.1,423.8,673.1z
			"/>
		<path class="st6" d="M370.5,662.4c0.2,0,0.4,0,0.6,0c0.8,0,1.7-0.2,2.4,0.1c0.9,0.3,0.4,1.4,0.7,2.1c0.4,1.1,1,2,2,2.6
			c2.5,1.4,5.1,1.6,7.7,0.4c2.7-1.2,3-4.9,0.7-6.7c-1.4-1.1-3-1.6-4.7-2.1c-2.7-0.9-5.4-1.8-7.8-3.4c-5.7-3.6-5.7-11.1-0.1-14.8
			c5-3.3,13.3-2.8,17.5,0.9c2,1.7,2.9,3.9,3.1,6.5c0,0.7-0.2,1-0.9,1c-1.6-0.1-3.3,0-4.9,0c-0.6,0-0.9-0.2-1-0.8
			c-0.2-2.2-1.4-3.6-3.4-4.1c-2.4-0.6-4.7-0.7-6.6,1.3c-1.7,1.7-1.4,4.2,0.6,5.6c1.7,1.1,3.6,1.8,5.5,2.4c2.5,0.8,4.9,1.7,7.1,3.2
			c3.1,2.1,4.3,5,4,8.7c-0.3,3.4-2.3,5.8-5.4,7c-5.4,2.2-10.7,2-15.8-0.9c-3.1-1.7-4.5-4.4-4.6-7.9c0-0.8,0.2-1.1,1-1
			C368.9,662.4,369.7,662.4,370.5,662.4z"/>
		<path class="st6" d="M607.8,655.9c0-5.3,0-10.6,0-15.8c0-1,0.3-1.3,1.3-1.2c6.5,0,13,0,19.6,0c1,0,1.3,0.3,1.2,1.2
			c-0.1,1.1-0.1,2.2,0,3.2c0.1,0.8-0.3,1-1,1c-4.2,0-8.5,0-12.7,0c-1,0-1.3,0.2-1.3,1.3c0.1,2.1,0.1,4.2,0,6.2c0,0.9,0.3,1.1,1.1,1
			c3.5,0,7,0,10.4,0c0.9,0,1.2,0.3,1.1,1.1c-0.1,1.1-0.1,2.2,0,3.2c0.1,0.8-0.3,1-1,1c-3.5,0-7,0-10.4,0c-0.9,0-1.2,0.2-1.2,1.1
			c0.1,2.5,0.1,5,0,7.4c0,0.9,0.2,1.2,1.1,1.1c4,0,8.1,0,12.1,0c1.7,0,1.7,0,1.7,1.7c0,0.9-0.1,1.8,0,2.6c0.1,0.8-0.2,1.1-1,1.1
			c-6.6,0-13.2,0-19.8,0c-1,0-1.2-0.4-1.2-1.2C607.8,666.6,607.8,661.2,607.8,655.9z"/>
		<path class="st6" d="M341.5,655.9c0-5.3,0-10.6,0-15.9c0-0.8,0.2-1.1,1-1.1c6.6,0,13.2,0,19.8,0c0.8,0,1.1,0.2,1.1,1.1
			c-0.1,1.1-0.1,2.2,0,3.2c0.1,1-0.3,1.1-1.2,1.1c-4.2,0-8.4,0-12.6,0c-1,0-1.3,0.3-1.2,1.3c0.1,2,0.1,4.1,0,6.1
			c0,1,0.3,1.2,1.2,1.2c3.4,0,6.9,0,10.3,0c1,0,1.2,0.3,1.2,1.2c-0.1,1-0.1,2,0,3c0.1,0.9-0.2,1.2-1.1,1.2c-3.5-0.1-7,0-10.4,0
			c-0.9,0-1.2,0.2-1.1,1.1c0.1,2.5,0.1,5,0,7.4c0,0.9,0.2,1.2,1.1,1.1c4.2,0,8.5,0,12.7,0c1,0,1.3,0.3,1.3,1.3c-0.1,1.1,0,2.2,0,3.4
			c0,0.6-0.2,0.8-0.8,0.8c-6.8,0-13.7,0-20.5,0c-0.9,0-0.7-0.6-0.7-1C341.5,666.7,341.5,661.3,341.5,655.9z"/>
		<path class="st6" d="M405.1,658.7c0-4.4,0-8.9,0-13.3c0-1-0.3-1.2-1.2-1.2c-2.4,0.1-4.9,0-7.3,0c-0.9,0-1.2-0.3-1.1-1.2
			c0.1-1.1,0-2.2,0-3.4c0-0.7,0.2-0.9,0.9-0.9c8.2,0,16.4,0,24.6,0c0.6,0,0.8,0.2,0.8,0.8c0,1.2,0,2.5,0,3.7c0,0.7-0.3,0.9-0.9,0.9
			c-2.6,0-5.1,0-7.7,0c-1,0-1.2,0.3-1.2,1.2c0,8.7,0,17.5,0,26.2c0,1.2-0.3,1.5-1.5,1.4c-1.4-0.1-2.8-0.1-4.2,0
			c-1.1,0.1-1.3-0.3-1.3-1.3C405.1,667.4,405.1,663.1,405.1,658.7z"/>
		<path class="st6" d="M587.5,658.7c0-4.4,0-8.9,0-13.3c0-0.9-0.2-1.2-1.2-1.2c-2.5,0.1-5,0-7.4,0c-0.8,0-1.1-0.2-1-1
			c0.1-1.2,0-2.4,0-3.6c0-0.6,0.2-0.8,0.8-0.8c8.2,0,16.4,0,24.6,0c0.6,0,0.9,0.1,0.8,0.8c0,1.2,0,2.5,0,3.7c0,0.7-0.2,0.9-0.9,0.9
			c-2.5,0-5,0-7.6,0c-1,0-1.3,0.2-1.3,1.3c0,8.7,0,17.4,0.1,26.1c0,1.1-0.2,1.6-1.4,1.5c-1.5-0.1-3-0.1-4.4,0
			c-0.8,0-1.1-0.2-1.1-1.1C587.5,667.6,587.5,663.2,587.5,658.7z"/>
		<path class="st5" d="M317.8,649.2c0-1.4,0-2.7,0-4.1c0-0.6,0.2-0.9,0.8-0.8c1.8,0,3.6,0,5.4,0.1c2.7,0.2,4.3,2.2,4.3,4.9
			c0,2.8-1.5,4.5-4.3,4.7c-1.8,0.1-3.6,0-5.4,0.1c-0.6,0-0.8-0.2-0.8-0.8C317.8,651.9,317.8,650.5,317.8,649.2z"/>
		<path class="st5" d="M492.9,649.1c0-1.4,0-2.7,0-4.1c0-0.6,0.2-0.8,0.8-0.8c1.8,0,3.6-0.1,5.4,0.1c2.8,0.2,4.3,2.1,4.3,5.1
			c0,2.8-1.5,4.3-4.3,4.6c-1.8,0.1-3.6,0-5.4,0.1c-0.6,0-0.7-0.3-0.7-0.8C492.9,651.9,492.9,650.5,492.9,649.1z"/>
		<path class="st7" d="M528.9,648.2c0.9,2.8,1.7,5.3,2.5,7.7c0.4,1.2,0.7,2.4,1.1,3.5c0.2,0.6,0,0.8-0.6,0.8c-2,0-4,0-6,0
			c-0.5,0-0.8-0.1-0.6-0.7C526.5,655.9,527.6,652.2,528.9,648.2z"/>
		<path class="st7" d="M435.3,648.5c1.2,3.7,2.3,7.3,3.5,11c0.2,0.6,0,0.8-0.6,0.7c-2,0-4,0-6,0c-0.5,0-0.8-0.1-0.6-0.7
			c1.2-3.7,2.4-7.3,3.6-11C435.1,648.6,435.2,648.6,435.3,648.5z"/>
	</g>
</g>
</svg>
