<svg width="290" height="183" viewBox="0 0 290 183" fill="none" xmlns="http://www.w3.org/2000/svg">
	<rect y="0.837891" width="290" height="181.226" rx="30" fill="#FA790E" />
	<mask id="mask0_138_3110" style="mask-type:alpha" maskUnits="userSpaceOnUse" x="0" y="0" width="290" height="183">
		<rect y="0.837891" width="290" height="181.226" rx="30" fill="#ED713C" />
	</mask>
	<g mask="url(#mask0_138_3110)">
		<ellipse opacity="0.1" cx="22.5556" cy="196.097" rx="147.762" ry="104.032" fill="black" />
		<ellipse opacity="0.08" cx="267.445" cy="-26.7006" rx="147.762" ry="104.032" fill="black" />
	</g>
	<rect x="27" y="130.288" width="33" height="23.5363" rx="5" fill="url(#paint0_radial_138_3110)" />
	<path fill-rule="evenodd" clip-rule="evenodd"
		d="M43.4999 130.522L39.8333 136.673C39.8333 136.673 41.2999 142.055 39.8333 146.668L43.4999 153.588L47.1666 146.668C47.1666 146.668 45.6999 142.824 47.1666 136.673C47.1666 136.673 43.4999 130.522 43.4999 130.522Z"
		stroke="#C7C7B6" stroke-width="1.3" stroke-linejoin="bevel" />
	<path d="M27 136.955H39.8333" stroke="#C7C7B6" stroke-width="1.3" stroke-linejoin="bevel" />
	<path d="M46.7996 136.955H59.9996" stroke="#C7C7B6" stroke-width="1.3" stroke-linejoin="bevel" />
	<path d="M27 146.369H39.8333" stroke="#C7C7B6" stroke-width="1.3" stroke-linejoin="bevel" />
	<path d="M46.7996 146.369H59.9996" stroke="#C7C7B6" stroke-width="1.3" stroke-linejoin="bevel" />
	<ellipse cx="238" cy="33.1584" rx="20" ry="21.6223" fill="#FA790E" />
	<path
		d="M244.827 39.9031H230.864C230.673 39.9031 230.483 39.7658 230.356 39.6286C230.229 39.4914 230.229 39.2169 230.293 39.0111L231.499 35.7175L230.293 23.4353H226.421V22.063H230.864C231.181 22.063 231.435 22.3375 231.499 22.6805L232.768 35.7175C232.768 35.8548 232.768 35.9234 232.704 36.0606L231.816 38.5308H245.461L244.827 39.9031Z"
		fill="white" />
	<path
		d="M232.26 36.4723L232.006 35.1L246.731 31.8064V26.1799H231.499V24.8076H247.365C247.746 24.8076 248 25.0821 248 25.4938V32.3553C248 32.6984 247.81 32.9729 247.492 33.0415L232.26 36.4723Z"
		fill="white" />
	<path
		d="M245.461 44.02C244.065 44.02 242.923 42.7849 242.923 41.2754C242.923 39.7658 244.065 38.5308 245.461 38.5308C246.858 38.5308 248 39.7658 248 41.2754C248 42.7849 246.858 44.02 245.461 44.02ZM245.461 39.9031C244.763 39.9031 244.192 40.5206 244.192 41.2754C244.192 42.0302 244.763 42.6477 245.461 42.6477C246.159 42.6477 246.731 42.0302 246.731 41.2754C246.731 40.5206 246.159 39.9031 245.461 39.9031Z"
		fill="white" />
	<path
		d="M230.229 44.02C228.833 44.02 227.69 42.7849 227.69 41.2754C227.69 39.7658 228.833 38.5308 230.229 38.5308C231.625 38.5308 232.768 39.7658 232.768 41.2754C232.768 42.7849 231.625 44.02 230.229 44.02ZM230.229 39.9031C229.531 39.9031 228.96 40.5206 228.96 41.2754C228.96 42.0302 229.531 42.6477 230.229 42.6477C230.927 42.6477 231.498 42.0302 231.498 41.2754C231.498 40.5206 230.927 39.9031 230.229 39.9031Z"
		fill="white" />
	<defs>
		<radialGradient id="paint0_radial_138_3110" cx="0" cy="0" r="1" gradientUnits="userSpaceOnUse"
			gradientTransform="translate(45.9503 138.861) rotate(139.402) scale(22.9932 23.1068)">
			<stop stop-color="white" />
			<stop offset="1" stop-color="#DDDCDA" />
		</radialGradient>
	</defs>
</svg>
