<svg width="35" height="35" viewBox="0 0 35 35" fill="none" xmlns="http://www.w3.org/2000/svg">
<path d="M20.5921 34.0909C21.847 34.0909 22.7158 33.0774 23.311 31.5329L33.9292 3.74855C34.2027 3.04067 34.3636 2.41323 34.3636 1.86623C34.3636 0.723969 33.6396 0 32.4813 0C31.9504 0 31.3069 0.144794 30.599 0.418293L2.70202 11.1009C1.31844 11.6318 0.272705 12.5005 0.272705 13.7554C0.272705 15.2838 1.41497 15.863 2.99161 16.3456L11.3253 18.8876C12.4515 19.2415 13.1111 19.2254 13.8994 18.4853L31.8217 1.88232C32.0469 1.67317 32.3204 1.70535 32.4974 1.86623C32.6744 2.02711 32.6744 2.3167 32.4813 2.52585L15.9104 20.4803C15.2347 21.2364 15.1704 21.9443 15.5082 23.0705L17.9858 31.2433C18.4685 32.8843 19.0476 34.0909 20.5921 34.0909Z" fill="#FA790E"/>
</svg>
