<svg width="19" height="17" viewBox="0 0 19 17" xmlns="http://www.w3.org/2000/svg">
    <path d="M17.3 16.1607C11.5 16.1607 5.8 16.1607 0 16.1607C0 16.0724 0 16.0724 0 15.9842C0 11.3077 0 6.7195 0 2.04303V1.95479C0 1.86656 -9.68575e-08 1.86656 0.0999999 1.86656C0.9 1.86656 1.7 1.86656 2.4 1.86656C2.5 1.86656 2.5 1.86656 2.5 1.95479C2.5 2.13126 2.5 2.30773 2.5 2.4842C2.5 3.27832 3.2 3.9842 4.1 4.07244C5 4.24891 5.9 3.7195 6.2 3.01361C6.4 2.66067 6.3 2.30773 6.3 1.95479C6.3 1.86656 6.3 1.77832 6.5 1.77832C7.4 1.77832 8.3 1.77832 9.2 1.77832C9.9 1.77832 10.6 1.77832 11.4 1.77832C11.5 1.77832 11.6 1.77832 11.6 1.95479C11.6 2.13126 11.6 2.30773 11.6 2.4842C11.6 3.27832 12.3 3.9842 13.2 4.07244C14.2 4.16067 15 3.7195 15.3 2.92538C15.4 2.57244 15.4 2.30773 15.4 1.95479C15.4 1.86656 15.4 1.77832 15.6 1.77832C16.3 1.77832 17.1 1.77832 17.8 1.77832C18 1.77832 18 1.86656 18 1.95479C18 6.54303 18 11.1313 18 15.8077C18 15.896 18 15.896 18 15.9842C17.9 15.9842 17.9 15.9842 17.8 15.9842C17.7 16.0724 17.5 16.0724 17.3 16.1607ZM9.1 15.0136C11.6 15.0136 14.1 15.0136 16.6 15.0136C16.8 15.0136 16.8 15.0136 16.8 14.8371C16.8 11.9254 16.8 9.01361 16.8 6.10185C16.8 5.92538 16.8 5.92538 16.6 5.92538C11.6 5.92538 6.6 5.92538 1.5 5.92538C1.3 5.92538 1.3 5.92538 1.3 6.10185C1.3 9.01361 1.3 11.9254 1.3 14.8371C1.3 15.0136 1.3 15.0136 1.5 15.0136C4.1 15.0136 6.6 15.0136 9.1 15.0136Z" />
    <path d="M18.1 16.0724C17.9 16.0724 17.6 16.0724 17.3 16.0724C17.5 15.9842 17.7 16.0724 17.9 16.0724C18 16.0724 18 16.0724 18.1 16.0724Z" />
    <path d="M14.8001 1.69014C14.8001 2.04308 14.9001 2.30779 14.7001 2.66073C14.5001 3.10191 14.0001 3.45485 13.4001 3.45485C12.8001 3.36661 12.3001 3.01367 12.3001 2.48426C12.2001 1.95485 12.2001 1.51367 12.3001 0.98426C12.4001 0.454848 12.9001 0.0136719 13.6001 0.0136719C14.2001 0.0136719 14.8001 0.454848 14.8001 1.0725C14.9001 1.24897 14.8001 1.42544 14.8001 1.69014Z" />
    <path d="M3.2999 1.69008C3.2999 1.33714 3.1999 1.07243 3.3999 0.719494C3.4999 0.278317 4.0999 -0.074624 4.6999 0.0136113C5.2999 0.0136113 5.6999 0.454788 5.7999 0.895964C5.8999 1.42538 5.8999 1.86655 5.7999 2.39596C5.6999 3.01361 5.1999 3.36655 4.4999 3.36655C3.8999 3.36655 3.2999 2.92538 3.2999 2.30773C3.2999 2.13126 3.2999 1.86655 3.2999 1.69008Z" />
    <path d="M7.5 7.07251C7.8 7.07251 8.1 7.07251 8.4 7.07251C8.5 7.07251 8.5 7.07251 8.5 7.16075C8.5 7.60192 8.5 8.0431 8.5 8.57251C8.5 8.66075 8.5 8.66075 8.4 8.66075C7.8 8.66075 7.2 8.66075 6.6 8.66075C6.5 8.66075 6.5 8.66075 6.5 8.57251C6.5 8.13133 6.5 7.69016 6.5 7.16075C6.5 7.07251 6.5 7.07251 6.6 7.07251C6.9 7.16075 7.2 7.07251 7.5 7.07251Z" />
    <path d="M10.8 8.66075C10.5 8.66075 10.2 8.66075 9.90005 8.66075C9.80005 8.66075 9.80005 8.66075 9.80005 8.57251C9.80005 8.13133 9.80005 7.69016 9.80005 7.16075C9.80005 7.07251 9.80005 7.07251 9.90005 7.07251C10.5 7.07251 11.1 7.07251 11.7 7.07251C11.8 7.07251 11.8 7.07251 11.8 7.16075C11.8 7.60192 11.8 8.0431 11.8 8.48428C11.8 8.57251 11.8 8.57251 11.6 8.57251C11.4 8.66075 11.1 8.66075 10.8 8.66075Z" />
    <path d="M7.5 12.4548C7.8 12.4548 8.1 12.4548 8.4 12.4548C8.5 12.4548 8.5 12.4548 8.5 12.5431C8.5 12.9842 8.5 13.4254 8.5 13.8666C8.5 13.9548 8.5 13.9548 8.4 13.9548C7.8 13.9548 7.2 13.9548 6.6 13.9548C6.5 13.9548 6.5 13.9548 6.5 13.8666C6.5 13.4254 6.5 12.9842 6.5 12.5431C6.5 12.4548 6.5 12.4548 6.6 12.4548C6.9 12.4548 7.2 12.4548 7.5 12.4548Z" />
    <path d="M10.8 14.043C10.5 14.043 10.2 14.043 9.90005 14.043C9.80005 14.043 9.80005 14.043 9.80005 13.9547C9.80005 13.5136 9.80005 13.0724 9.80005 12.6312C9.80005 12.543 9.80005 12.543 9.90005 12.543C10.5 12.543 11.1 12.543 11.7 12.543C11.8 12.543 11.8 12.543 11.8 12.6312C11.8 13.0724 11.8 13.5136 11.8 14.043C11.8 14.1312 11.8 14.1312 11.7 14.1312C11.4 14.043 11.1 14.043 10.8 14.043Z" />
    <path d="M13.8999 8.66064C13.5999 8.66064 13.2999 8.66064 12.9999 8.66064C12.8999 8.66064 12.8999 8.66064 12.8999 8.57241C12.8999 8.13123 12.8999 7.69006 12.8999 7.24888C12.8999 7.16064 12.8999 7.16064 12.9999 7.16064C13.5999 7.16064 14.1999 7.16064 14.7999 7.16064C14.8999 7.16064 14.8999 7.16064 14.8999 7.24888C14.8999 7.69006 14.8999 8.13123 14.8999 8.57241C14.8999 8.66064 14.8999 8.66064 14.7999 8.66064C14.4999 8.66064 14.1999 8.66064 13.8999 8.66064Z" />
    <path d="M4.30005 14.0431C4.00005 14.0431 3.70005 14.0431 3.40005 14.0431C3.30005 14.0431 3.30005 14.0431 3.30005 13.9548C3.30005 13.5137 3.30005 13.0725 3.30005 12.5431C3.30005 12.4548 3.30005 12.4548 3.40005 12.4548C4.00005 12.4548 4.60005 12.4548 5.20005 12.4548C5.30005 12.4548 5.30005 12.4548 5.30005 12.5431C5.30005 12.9842 5.30005 13.4254 5.30005 13.8666C5.30005 13.9548 5.30005 13.9548 5.20005 13.9548C4.90005 14.0431 4.60005 14.0431 4.30005 14.0431Z" />
    <path d="M13.8999 14.0431C13.5999 14.0431 13.2999 14.0431 12.9999 14.0431C12.8999 14.0431 12.8999 14.0431 12.8999 13.9548C12.8999 13.5137 12.8999 13.0725 12.8999 12.5431C12.8999 12.4548 12.8999 12.4548 12.9999 12.4548C13.5999 12.4548 14.1999 12.4548 14.7999 12.4548C14.8999 12.4548 14.8999 12.4548 14.8999 12.5431C14.8999 12.9842 14.8999 13.4254 14.8999 13.8666C14.8999 13.9548 14.8999 13.9548 14.7999 13.9548C14.3999 14.0431 14.1999 14.0431 13.8999 14.0431Z" />
    <path d="M7.5 9.71958C7.8 9.71958 8.1 9.71958 8.4 9.71958C8.5 9.71958 8.5 9.71958 8.5 9.80782C8.5 10.249 8.5 10.6902 8.5 11.1313C8.5 11.2196 8.5 11.2196 8.4 11.2196C7.8 11.2196 7.2 11.2196 6.6 11.2196C6.5 11.2196 6.5 11.2196 6.5 11.1313C6.5 10.6902 6.5 10.249 6.5 9.71958C6.5 9.63135 6.6 9.63135 6.6 9.63135C6.9 9.71958 7.2 9.71958 7.5 9.71958Z" />
    <path d="M10.8 11.3076C10.5 11.3076 10.2 11.3076 9.90005 11.3076C9.80005 11.3076 9.80005 11.3076 9.80005 11.2194C9.80005 10.7782 9.80005 10.337 9.80005 9.89585C9.80005 9.80762 9.80005 9.80762 9.90005 9.80762C10.5 9.80762 11.1 9.80762 11.7 9.80762C11.8 9.80762 11.8 9.80762 11.8 9.89585C11.8 10.337 11.8 10.7782 11.8 11.2194C11.8 11.3076 11.8 11.3076 11.7 11.3076C11.4 11.3076 11.1 11.3076 10.8 11.3076Z" />
    <path d="M13.9 11.3076C13.6 11.3076 13.3 11.3076 13 11.3076C12.9 11.3076 12.8 11.3076 12.8 11.2194C12.8 10.7782 12.8 10.337 12.8 9.89585C12.8 9.80762 12.8 9.80762 12.9 9.80762C13.5 9.80762 14.1 9.80762 14.7 9.80762C14.8 9.80762 14.8 9.80762 14.8 9.89585C14.8 10.337 14.8 10.7782 14.8 11.2194C14.8 11.3076 14.8 11.3076 14.7 11.3076C14.5 11.3076 14.2 11.3076 13.9 11.3076Z" />
    <path d="M4.30005 9.71958C4.60005 9.71958 4.90005 9.71958 5.20005 9.71958C5.30005 9.71958 5.30005 9.71958 5.30005 9.80782C5.30005 10.249 5.30005 10.6902 5.30005 11.1313C5.30005 11.2196 5.30005 11.2196 5.20005 11.2196C4.60005 11.2196 4.00005 11.2196 3.40005 11.2196C3.30005 11.2196 3.30005 11.2196 3.30005 11.1313C3.30005 10.6902 3.30005 10.249 3.30005 9.71958C3.30005 9.63135 3.30005 9.63135 3.40005 9.63135C3.70005 9.71958 4.00005 9.71958 4.30005 9.71958Z" />
</svg>
    