<svg width="44" height="70" viewBox="0 0 44 70" fill="none" xmlns="http://www.w3.org/2000/svg">
	<path d="M44 21.9685C44 30.3336 39.318 37.6066 32.428 41.3172C29.3246 42.9885 25.7732 43.937 22 43.937C18.2268 43.937 14.6754 42.9885 11.572 41.3172C4.68203 37.6066 0 30.3336 0 21.9685C0 9.83564 9.84974 0 22 0C34.1503 0 44 9.83564 44 21.9685Z" fill="#FA790E"/>
	<path d="M22 43.937C18.2268 43.937 14.6754 42.9885 11.572 41.3172C19.1859 56.1705 21.1304 72.521 22 69.05C22.8696 65.579 24.8664 55.3727 32.428 41.3172C29.3246 42.9885 25.7732 43.937 22 43.937Z" fill="#FA790E"/>
	<path fill-rule="evenodd" clip-rule="evenodd" d="M24.8876 7.06764C24.1252 7.25281 23.4645 7.7935 23.1315 8.50452C22.9737 8.84182 22.9397 8.99252 22.9209 9.43879C22.8847 10.3032 22.7154 10.1938 24.9223 10.7316C27.1255 11.2686 27.2355 11.288 27.4459 11.1764C27.6166 11.0859 28.0403 10.2555 27.9546 10.1795C27.9275 10.1554 27.5062 10.0523 27.0184 9.95038C26.4974 9.84148 26.0707 9.71957 25.9838 9.65483C25.7471 9.47846 25.6348 9.22624 25.5931 8.77725C25.547 8.28091 25.4403 8.34358 26.6341 8.16538C27.1056 8.09497 27.5047 8.02461 27.5209 8.00894C27.5832 7.94887 26.9728 7.45761 26.6201 7.28409C26.0502 7.00366 25.4563 6.92946 24.8876 7.06764ZM23.471 11.0574C23.0146 11.1774 22.6388 11.5086 22.4348 11.9705C22.3219 12.2261 22.2844 12.6217 22.0712 15.8045C21.8395 19.263 21.8361 19.3605 21.9375 19.6286C22.0366 19.8904 22.3309 20.2357 22.5849 20.3879C22.6769 20.4431 22.0242 20.4591 19.5836 20.4619L16.4649 20.4653V21.1157V21.7661H20.8105H25.156V21.1672V20.5683L25.4369 20.6022C25.5914 20.6208 26.19 20.6824 26.7672 20.7391C27.3443 20.7958 27.8166 20.8647 27.8166 20.8922C27.8166 20.9196 27.484 21.8758 27.0776 23.0171C26.6711 24.1583 26.3385 25.1844 26.3385 25.2973C26.3385 25.792 26.7693 26.1862 27.2408 26.123C27.373 26.1053 27.55 26.0413 27.6341 25.9809C27.8122 25.853 29.5372 22.4968 29.8207 21.7264C30.1808 20.7482 30.2876 19.5392 30.0562 19.0612C29.8144 18.5617 29.7782 18.551 27.1926 18.2113C25.9261 18.0448 24.8678 17.8884 24.8407 17.8636C24.7911 17.8183 25.0692 15.3248 25.1461 15.1261C25.1804 15.0373 25.2729 15.1066 25.6983 15.54C25.9793 15.8263 26.285 16.1325 26.3775 16.2203C26.5277 16.3627 26.7433 16.4215 28.3848 16.7672C29.3963 16.9801 30.3008 17.1543 30.3949 17.1542C30.6223 17.1539 30.9231 16.9639 31.0721 16.7263C31.256 16.4333 31.2118 15.8595 30.9874 15.6252C30.7525 15.38 30.5633 15.31 28.8808 14.8458C28.0516 14.6171 27.3434 14.3977 27.307 14.3584C27.2707 14.3191 26.7534 13.675 26.1575 12.9271C24.993 11.4653 24.8938 11.3577 24.5395 11.1728C24.2868 11.0409 23.753 10.9832 23.471 11.0574ZM15.0459 12.5305C14.6425 12.5775 14.578 12.6893 14.4249 13.607C14.3734 13.9159 14.3173 14.2152 14.3003 14.2721C14.2719 14.3672 14.1451 14.3756 12.7361 14.3756C11.2817 14.3756 11.1968 14.3817 11.0846 14.4939C10.9265 14.652 10.9356 14.8232 11.1115 14.9991L11.2566 15.1442H12.7118C14.0694 15.1442 14.1651 15.1511 14.1379 15.2477C14.122 15.3046 14.076 15.544 14.0358 15.7798L13.9628 16.2084H11.6983C9.4449 16.2084 9.43319 16.2091 9.31323 16.3379C9.15383 16.509 9.1611 16.6552 9.33782 16.8319L9.48291 16.977H11.6436C13.3329 16.977 13.8043 16.9932 13.8041 17.051C13.804 17.122 13.6007 18.2252 13.5372 18.4995L13.5065 18.6325H10.5853H7.66403L7.54153 18.7883C7.38272 18.9901 7.38704 19.079 7.56412 19.256L7.7092 19.4011H10.5794C12.9235 19.4011 13.4496 19.4155 13.4496 19.4795C13.4496 19.5226 13.5182 19.6224 13.6021 19.7012L13.7547 19.8445L16.9278 19.8587C18.9238 19.8676 20.181 19.8508 20.3166 19.8133C20.4352 19.7805 20.5714 19.694 20.6192 19.6209C20.7541 19.4151 21.8806 13.106 21.8232 12.8776C21.739 12.5418 21.7929 12.5473 18.3548 12.5295C16.6162 12.5205 15.1272 12.521 15.0459 12.5305ZM32.7872 15.6246C32.0254 15.7513 31.3939 15.8633 31.3838 15.8734C31.3737 15.8835 31.4037 16.2623 31.4505 16.7152C31.726 19.3808 31.7244 21.7478 31.4461 23.1555C31.2943 23.9235 30.97 24.8506 30.7154 25.2445C30.1237 26.16 29.2048 26.6945 27.9644 26.845C27.1197 26.9474 24.6534 26.9297 24.2791 26.8186C23.671 26.638 23.3039 26.144 23.3021 25.5042C23.3011 25.1485 23.3297 25.0755 23.9921 23.7427C24.3721 22.9779 24.6831 22.3239 24.6831 22.2893C24.6831 22.2452 23.5321 22.2362 20.8252 22.2592L16.9674 22.2919L16.7143 22.8124C16.575 23.0986 16.442 23.3671 16.4186 23.409C16.3953 23.451 16.1633 23.5839 15.9032 23.7043L15.4302 23.9233L12.0992 23.9532L8.76829 23.9832L8.65163 24.1273C8.52014 24.2898 8.54415 24.5257 8.70467 24.6483C8.77875 24.705 9.42816 24.7222 11.4802 24.7222C12.9536 24.7222 14.1591 24.7337 14.1591 24.7476C14.1591 24.7616 13.9977 24.9412 13.8005 25.1467C13.4521 25.5098 12.8846 26.2997 12.7356 26.629L12.662 26.7916H11.1047C9.62623 26.7916 9.54144 26.7975 9.42917 26.9098C9.27758 27.0614 9.27846 27.2666 9.43147 27.4308C9.54889 27.5568 9.58815 27.5602 10.9455 27.5602C12.129 27.5602 12.334 27.5729 12.3065 27.6447C12.2886 27.6911 12.2571 27.8198 12.2362 27.9305L12.1985 28.1319L15.7063 28.1712C17.6356 28.1927 21.316 28.2106 23.8849 28.2108C26.4538 28.2109 28.8517 28.2282 29.2135 28.249L29.8713 28.2869L29.9004 28.6942C29.9164 28.9183 29.9451 29.1171 29.964 29.136C29.9829 29.1549 30.4985 28.9032 31.1099 28.5766C35.7291 26.1088 37.9562 24.8999 37.9724 24.8514C38.0008 24.7661 37.2389 24.2128 36.8132 24.0096C36.2413 23.7366 35.5277 23.5874 34.9012 23.6097L34.3739 23.6285L34.1726 22.9781C33.5894 21.0941 32.6647 18.0223 32.6647 17.9688C32.6647 17.8831 33.5689 17.9455 33.5982 18.0332C33.6105 18.0701 33.7243 18.1004 33.851 18.1004C34.1249 18.1004 34.0933 18.1984 34.2601 16.8292C34.3275 16.2764 34.3975 15.7244 34.4157 15.6024C34.4567 15.3281 34.5793 15.3265 32.7872 15.6246ZM6.14645 21.6734C6.06592 21.7539 6 21.8494 6 21.8855C6 21.9766 6.12245 22.2005 6.20102 22.2529C6.23679 22.2768 7.92229 22.2968 9.9465 22.2973C13.5487 22.2982 13.6294 22.2957 13.7452 22.1799C13.8937 22.0314 13.8954 21.8777 13.7505 21.6987L13.6374 21.5591L9.96512 21.543L6.2929 21.527L6.14645 21.6734ZM19.43 24.4086C20.2486 24.7925 20.8741 25.6349 20.9391 26.441L20.9696 26.8211L20.7231 26.408C20.169 25.4796 19.6101 24.9476 18.6229 24.409L18.209 24.1832L18.6318 24.2079C18.94 24.2259 19.1564 24.2804 19.43 24.4086ZM35.9186 26.5832C35.1327 27.0156 35.1247 27.0221 35.2978 27.0854C35.7181 27.239 35.7939 27.2859 36.0466 27.5487C36.3761 27.8914 36.508 28.2208 36.5072 28.6995C36.5058 29.6015 35.7929 30.2992 34.8705 30.3012C33.8151 30.3036 32.9843 29.1849 33.322 28.2163C33.3582 28.1123 33.375 28.0142 33.3593 27.9985C33.3435 27.9827 32.9879 28.1544 32.569 28.3799C31.704 28.8455 31.7079 28.8397 31.8678 29.4569C32.0982 30.3458 32.6634 31.0387 33.5015 31.4592C35.2842 32.3537 37.388 31.3994 37.9295 29.4506C37.9698 29.3051 38.0016 28.9466 37.9999 28.654C37.9949 27.7682 37.718 27.1046 37.0807 26.4516C36.9142 26.2809 36.7637 26.1421 36.7463 26.1432C36.7289 26.1442 36.3564 26.3422 35.9186 26.5832ZM13.4752 28.9625C13.6559 30.252 14.3952 31.1979 15.5501 31.6171C16.3595 31.9109 17.2016 31.8559 17.998 31.4573C18.9613 30.9752 19.6551 29.9688 19.6793 29.0187L19.6871 28.7131H18.9815H18.2759L18.2046 28.9924C17.9986 29.8 17.3933 30.2969 16.6127 30.2993C15.815 30.3017 15.1277 29.7318 14.996 28.9588L14.9541 28.7131L14.1949 28.6965L13.4356 28.6799L13.4752 28.9625Z" fill="white"/>
	</svg>
	