<svg width="42" height="42" viewBox="0 0 42 42" fill="none" xmlns="http://www.w3.org/2000/svg">
<circle cx="21" cy="21" r="20.5" stroke="white" stroke-linecap="round" stroke-dasharray="2 4"/>
<path fill-rule="evenodd" clip-rule="evenodd" d="M21 38.5C30.665 38.5 38.5 30.665 38.5 21C38.5 11.335 30.665 3.5 21 3.5C11.335 3.5 3.5 11.335 3.5 21C3.5 30.665 11.335 38.5 21 38.5ZM11.897 19.6816C11.4622 25.6877 16.2599 30.8433 22.3599 30.8528C22.5124 30.8411 22.674 30.8328 22.8413 30.8242C23.1234 30.8098 23.4215 30.7945 23.7194 30.7604C27.8828 30.286 31.5946 26.965 32.5236 22.861C32.5896 22.5699 32.5324 22.3213 32.2905 22.1424C32.1829 22.0589 32.0521 22.011 31.916 22.0053C31.78 21.9997 31.6456 22.0366 31.5315 22.1108C31.3565 22.2226 31.1885 22.3451 31.0285 22.4775C28.0126 24.788 23.4378 24.3928 20.8208 21.6401C18.0439 18.7224 18.0292 14.3163 20.2591 11.5416C20.4879 11.2571 20.5766 10.9543 20.3552 10.6368C20.1337 10.3193 19.8155 10.3024 19.4694 10.4014C15.2546 11.6017 12.213 15.3282 11.897 19.6816Z" fill="white"/>
</svg>
