<svg width="80" height="80" viewBox="0 0 80 80" fill="none" xmlns="http://www.w3.org/2000/svg">
    <path d="M72 40C72 31.5131 68.6286 23.3737 62.6274 17.3726C56.6263 11.3714 48.4869 8 40 8C31.5131 8 23.3737 11.3714 17.3726 17.3726C11.3714 23.3737 8 31.5131 8 40C8 48.4869 11.3714 56.6263 17.3726 62.6274C23.3737 68.6286 31.5131 72 40 72C48.4869 72 56.6263 68.6286 62.6274 62.6274C68.6286 56.6263 72 48.4869 72 40ZM80 40C80 50.6087 75.7857 60.7828 68.2843 68.2843C60.7828 75.7857 50.6087 80 40 80C34.7471 80 29.5457 78.9654 24.6927 76.9552C19.8396 74.945 15.4301 71.9986 11.7157 68.2843C4.21427 60.7828 0 50.6087 0 40C0 29.3913 4.21427 19.2172 11.7157 11.7157C19.2172 4.21427 29.3913 0 40 0C45.2529 0 50.4543 1.03463 55.3073 3.04482C60.1604 5.05501 64.5699 8.00139 68.2843 11.7157C71.9986 15.4301 74.945 19.8396 76.9552 24.6927C78.9654 29.5457 80 34.7471 80 40ZM32 30C32 33.2 29.2 36 26 36C22.8 36 20 33.2 20 30C20 26.8 22.8 24 26 24C29.2 24 32 26.8 32 30ZM60 30C60 33.2 57.2 36 54 36C50.8 36 48 33.2 48 30C48 26.8 50.8 24 54 24C57.2 24 60 26.8 60 30ZM40 60.92C33 60.92 26.84 58 23.24 53.68L28.92 48C30.72 50.88 35 52.92 40 52.92C45 52.92 49.28 50.88 51.08 48L56.76 53.68C53.16 58 47 60.92 40 60.92Z" fill="#555555" fill-opacity="0.89"/>
    </svg>
    